# Blender v2.66 (sub 1) OBJ File: ''
# www.blender.org
v 0.000000 -0.000000 -0.250000
v 0.040155 0.055268 -0.240486
v 0.064972 -0.021110 -0.240486
v 0.131432 0.180901 -0.111806
v 0.108470 0.149298 -0.168655
v 0.068315 0.204567 -0.126432
v 0.000000 -0.068315 -0.240482
v -0.064972 -0.021110 -0.240486
v -0.040155 0.055268 -0.240486
v 0.108470 0.217616 -0.058114
v 0.212662 -0.069096 -0.111806
v 0.215664 -0.001757 -0.126432
v 0.240482 -0.035916 -0.058113
v 0.000000 -0.223605 -0.111802
v 0.064972 -0.205656 -0.126432
v 0.040154 -0.239812 -0.058113
v -0.212662 -0.069096 -0.111806
v -0.175510 -0.125344 -0.126432
v -0.215668 -0.112297 -0.058113
v -0.131432 0.180901 -0.111806
v -0.173442 0.128188 -0.126432
v -0.173445 0.170411 -0.058114
v 0.173445 0.170410 -0.058114
v 0.215668 -0.112297 -0.058113
v -0.040155 -0.239812 -0.058113
v -0.240482 -0.035916 -0.058113
v -0.108470 0.217616 -0.058114
v 0.212662 0.069096 0.111806
v 0.175510 0.125344 0.126432
v 0.175510 0.057025 0.168654
v 0.131432 -0.180901 0.111806
v 0.173442 -0.128188 0.126432
v 0.108470 -0.149298 0.168655
v -0.131432 -0.180901 0.111806
v -0.068315 -0.204567 0.126432
v -0.108470 -0.149298 0.168655
v -0.212662 0.069096 0.111806
v -0.215664 0.001757 0.126432
v -0.175510 0.057025 0.168654
v 0.000000 0.223605 0.111802
v -0.064972 0.205656 0.126432
v 0.000000 0.184543 0.168651
v 0.125000 -0.040614 -0.212662
v 0.172045 0.013197 -0.180901
v 0.175510 -0.057025 -0.168654
v 0.106331 0.034547 -0.223608
v 0.077252 0.106331 -0.212662
v 0.146944 0.090449 -0.180902
v 0.000000 0.212662 -0.131435
v -0.040613 0.167704 -0.180902
v -0.068315 0.204567 -0.126432
v 0.040613 0.167704 -0.180902
v 0.000000 0.111802 -0.223605
v 0.000000 -0.131432 -0.212662
v 0.065714 -0.159548 -0.180901
v 0.000000 -0.184543 -0.168651
v 0.065714 -0.090449 -0.223608
v 0.131432 -0.111803 -0.180901
v -0.125000 -0.040614 -0.212662
v -0.131432 -0.111803 -0.180901
v -0.175510 -0.057025 -0.168654
v -0.065715 -0.090449 -0.223608
v -0.065715 -0.159548 -0.180901
v -0.077252 0.106331 -0.212662
v -0.146944 0.090449 -0.180902
v -0.108470 0.149298 -0.168655
v -0.106331 0.034548 -0.223608
v -0.172045 0.013197 -0.180901
v 0.077252 0.237762 -0.000000
v 0.000000 0.250000 -0.000000
v 0.040155 0.239812 0.058113
v 0.040613 0.236802 -0.069099
v -0.040613 0.236802 -0.069099
v 0.250000 0.000000 0.000000
v 0.237762 0.077255 -0.000000
v 0.240482 0.035916 0.058113
v 0.237762 0.034551 -0.069099
v 0.202251 0.065717 -0.131435
v 0.173442 0.128188 -0.126432
v 0.212662 0.111802 -0.069099
v 0.077252 -0.237762 0.000000
v 0.146944 -0.202255 0.000000
v 0.108470 -0.217616 0.058114
v 0.106331 -0.215449 -0.069098
v 0.125000 -0.172049 -0.131435
v 0.175510 -0.125344 -0.126432
v 0.172048 -0.167704 -0.069098
v -0.202255 -0.146948 0.000000
v -0.146944 -0.202255 0.000000
v -0.173445 -0.170410 0.058114
v -0.172048 -0.167704 -0.069098
v -0.125000 -0.172049 -0.131435
v -0.064972 -0.205656 -0.126432
v -0.106331 -0.215449 -0.069098
v -0.202255 0.146948 -0.000000
v -0.237762 0.077255 -0.000000
v -0.215668 0.112297 0.058113
v -0.212662 0.111802 -0.069099
v -0.202251 0.065717 -0.131435
v -0.215664 -0.001757 -0.126432
v -0.237762 0.034551 -0.069099
v 0.202255 0.146948 -0.000000
v 0.172048 0.167704 0.069098
v 0.215668 0.112297 0.058113
v 0.146944 0.202255 -0.000000
v 0.106331 0.215449 0.069098
v 0.202255 -0.146948 0.000000
v 0.212662 -0.111802 0.069099
v 0.173445 -0.170411 0.058114
v 0.237762 -0.077255 0.000000
v 0.237762 -0.034551 0.069099
v -0.077252 -0.237762 0.000000
v -0.040613 -0.236802 0.069099
v -0.108470 -0.217616 0.058114
v 0.000000 -0.250000 0.000000
v 0.040613 -0.236802 0.069099
v -0.250000 0.000000 0.000000
v -0.237762 -0.034551 0.069099
v -0.240482 0.035916 0.058113
v -0.237762 -0.077255 0.000000
v -0.212662 -0.111802 0.069099
v -0.077252 0.237762 -0.000000
v -0.106331 0.215449 0.069098
v -0.040154 0.239812 0.058113
v -0.146944 0.202255 -0.000000
v -0.172048 0.167704 0.069098
v 0.125000 0.040614 0.212662
v 0.065715 0.090449 0.223605
v 0.064972 0.021110 0.240486
v 0.131432 0.111803 0.180901
v 0.125000 0.172049 0.131435
v 0.064972 0.205656 0.126432
v 0.065715 0.159548 0.180901
v 0.077252 -0.106331 0.212662
v 0.106331 -0.034548 0.223608
v 0.040155 -0.055268 0.240486
v 0.146944 -0.090452 0.180902
v 0.202251 -0.065717 0.131435
v 0.215664 0.001757 0.126432
v 0.172045 -0.013197 0.180901
v -0.077252 -0.106331 0.212662
v 0.000000 -0.111802 0.223605
v -0.040155 -0.055268 0.240486
v -0.040613 -0.167704 0.180902
v 0.000000 -0.212662 0.131435
v 0.068315 -0.204567 0.126432
v 0.040613 -0.167704 0.180902
v -0.125000 0.040614 0.212662
v -0.106331 -0.034547 0.223608
v -0.064972 0.021110 0.240486
v -0.172045 -0.013197 0.180901
v -0.202251 -0.065717 0.131435
v -0.173442 -0.128188 0.126432
v -0.146944 -0.090452 0.180902
v 0.000000 0.131432 0.212662
v -0.065714 0.090449 0.223605
v 0.000000 0.068315 0.240482
v -0.065714 0.159548 0.180901
v -0.125000 0.172049 0.131435
v -0.175510 0.125344 0.126432
v -0.131432 0.111803 0.180901
v 0.000000 0.000000 0.250000
vt 0.000000 0.000000
vt 1.000000 0.000000
vt 1.000000 1.000000
vn 0.000000 0.000000 -1.000000
vn 0.159459 0.219489 -0.962462
vn 0.258003 -0.083834 -0.962493
vn 0.525712 0.723594 -0.447218
vn 0.434675 0.598285 -0.673116
vn 0.275216 0.817774 -0.505417
vn 0.000000 -0.271279 -0.962493
vn -0.258003 -0.083834 -0.962493
vn -0.159459 0.219489 -0.962462
vn 0.434675 0.869594 -0.234107
vn 0.850642 -0.276345 -0.447218
vn 0.862819 -0.009033 -0.505417
vn 0.961364 -0.144688 -0.234107
vn 0.000000 -0.894406 -0.447188
vn 0.258003 -0.823389 -0.505417
vn 0.159459 -0.959014 -0.234107
vn -0.850642 -0.276345 -0.447218
vn -0.703330 -0.499802 -0.505417
vn -0.862819 -0.447981 -0.234107
vn -0.525712 0.723594 -0.447218
vn -0.692709 0.514450 -0.505417
vn -0.692709 0.682119 -0.234107
vn 0.692709 0.682119 -0.234107
vn 0.862819 -0.447981 -0.234107
vn -0.159459 -0.959014 -0.234107
vn -0.961364 -0.144688 -0.234107
vn -0.434675 0.869594 -0.234107
vn 0.850642 0.276345 0.447218
vn 0.703330 0.499802 0.505417
vn 0.703330 0.228492 0.673086
vn 0.525712 -0.723594 0.447218
vn 0.692709 -0.514450 0.505417
vn 0.434675 -0.598285 0.673116
vn -0.525712 -0.723594 0.447218
vn -0.275216 -0.817774 0.505417
vn -0.434675 -0.598285 0.673116
vn -0.850642 0.276345 0.447218
vn -0.862819 0.009033 0.505417
vn -0.703330 0.228492 0.673086
vn 0.000000 0.894406 0.447188
vn -0.258003 0.823389 0.505417
vn 0.000000 0.739525 0.673086
vn 0.499985 -0.162450 -0.850642
vn 0.682669 0.060305 -0.728202
vn 0.703330 -0.228492 -0.673086
vn 0.434126 0.141057 -0.889706
vn 0.309000 0.425306 -0.850642
vn 0.587725 0.352458 -0.728202
vn 0.000000 0.850642 -0.525712
vn -0.153600 0.667898 -0.728202
vn -0.275216 0.817774 -0.505417
vn 0.153600 0.667898 -0.728202
vn 0.000000 0.456496 -0.889706
vn 0.000000 -0.525712 -0.850642
vn 0.268288 -0.630604 -0.728202
vn 0.000000 -0.739525 -0.673086
vn 0.268288 -0.369304 -0.889706
vn 0.516831 -0.450056 -0.728202
vn -0.499985 -0.162450 -0.850642
vn -0.516831 -0.450026 -0.728202
vn -0.703330 -0.228492 -0.673086
vn -0.268288 -0.369274 -0.889706
vn -0.268288 -0.630604 -0.728202
vn -0.309000 0.425306 -0.850642
vn -0.587725 0.352458 -0.728202
vn -0.434675 0.598285 -0.673116
vn -0.434126 0.141057 -0.889706
vn -0.682669 0.060305 -0.728202
vn 0.309000 0.951048 0.000000
vn 0.000000 0.999939 -0.010376
vn 0.159459 0.959014 0.234107
vn 0.153600 0.950011 -0.271706
vn -0.153600 0.950011 -0.271706
vn 1.000000 0.000000 0.000000
vn 0.950987 0.308969 -0.010376
vn 0.961364 0.144688 0.234107
vn 0.950987 0.147465 -0.271737
vn 0.808985 0.262856 -0.525742
vn 0.692709 0.514450 -0.505417
vn 0.856044 0.439650 -0.271737
vn 0.309000 -0.951048 0.000000
vn 0.587725 -0.808985 -0.010376
vn 0.434675 -0.869594 0.234107
vn 0.434126 -0.858882 -0.271706
vn 0.499985 -0.688162 -0.525712
vn 0.703330 -0.499802 -0.505417
vn 0.682669 -0.678304 -0.271706
vn -0.809015 -0.587756 0.000000
vn -0.587725 -0.808985 -0.010376
vn -0.692709 -0.682119 0.234107
vn -0.682669 -0.678304 -0.271706
vn -0.499985 -0.688162 -0.525712
vn -0.258003 -0.823389 -0.505417
vn -0.434126 -0.858882 -0.271706
vn -0.809015 0.587756 0.000000
vn -0.950987 0.308969 -0.010376
vn -0.862819 0.447981 0.234107
vn -0.856044 0.439650 -0.271737
vn -0.808985 0.262856 -0.525742
vn -0.862819 -0.009033 -0.505417
vn -0.950987 0.147465 -0.271737
vn 0.809015 0.587756 0.000000
vn 0.682669 0.678304 0.271706
vn 0.862819 0.447981 0.234107
vn 0.587725 0.808985 0.010376
vn 0.434126 0.858882 0.271706
vn 0.809015 -0.587756 0.000000
vn 0.856044 -0.439650 0.271737
vn 0.692709 -0.682119 0.234107
vn 0.950987 -0.308969 0.010376
vn 0.950987 -0.147465 0.271737
vn -0.309000 -0.951048 0.000000
vn -0.153600 -0.950011 0.271706
vn -0.434675 -0.869594 0.234107
vn 0.000000 -0.999939 0.010376
vn 0.153600 -0.950011 0.271706
vn -1.000000 0.000000 0.000000
vn -0.950987 -0.147465 0.271737
vn -0.961364 0.144688 0.234107
vn -0.950987 -0.308969 0.010376
vn -0.856044 -0.439650 0.271737
vn -0.309000 0.951048 0.000000
vn -0.434126 0.858882 0.271706
vn -0.159459 0.959014 0.234107
vn -0.587725 0.808985 0.010376
vn -0.682669 0.678304 0.271706
vn 0.499985 0.162450 0.850642
vn 0.268288 0.369304 0.889706
vn 0.258003 0.083834 0.962493
vn 0.516831 0.450026 0.728202
vn 0.499985 0.688162 0.525712
vn 0.258003 0.823389 0.505417
vn 0.268288 0.630604 0.728233
vn 0.309000 -0.425306 0.850642
vn 0.434126 -0.141057 0.889706
vn 0.159459 -0.219489 0.962462
vn 0.587725 -0.352489 0.728202
vn 0.808985 -0.262856 0.525712
vn 0.862819 0.009033 0.505417
vn 0.682669 -0.060305 0.728202
vn -0.309000 -0.425306 0.850642
vn 0.000000 -0.456496 0.889706
vn -0.159459 -0.219489 0.962462
vn -0.153600 -0.667898 0.728202
vn 0.000000 -0.850642 0.525712
vn 0.275216 -0.817774 0.505417
vn 0.153600 -0.667898 0.728202
vn -0.499985 0.162450 0.850642
vn -0.434126 -0.141057 0.889706
vn -0.258003 0.083834 0.962493
vn -0.682669 -0.060305 0.728202
vn -0.808985 -0.262856 0.525712
vn -0.692709 -0.514450 0.505417
vn -0.587725 -0.352489 0.728202
vn 0.000000 0.525712 0.850642
vn -0.268288 0.369304 0.889706
vn 0.000000 0.271310 0.962462
vn -0.268288 0.630604 0.728233
vn -0.499985 0.688162 0.525712
vn -0.703330 0.499802 0.505417
vn -0.516831 0.450026 0.728233
vn 0.000000 0.000000 1.000000
s 1
f 1/1/1 2/2/2 3/3/3
f 4/1/4 5/2/5 6/3/6
f 1/1/1 3/2/3 7/3/7
f 1/1/1 7/2/7 8/3/8
f 1/1/1 8/2/8 9/3/9
f 4/1/4 6/2/6 10/3/10
f 11/1/11 12/2/12 13/3/13
f 14/1/14 15/2/15 16/3/16
f 17/1/17 18/2/18 19/3/19
f 20/1/20 21/2/21 22/3/22
f 4/1/4 10/2/10 23/3/23
f 11/1/11 13/2/13 24/3/24
f 14/1/14 16/2/16 25/3/25
f 17/1/17 19/2/19 26/3/26
f 20/1/20 22/2/22 27/3/27
f 28/1/28 29/2/29 30/3/30
f 31/1/31 32/2/32 33/3/33
f 34/1/34 35/2/35 36/3/36
f 37/1/37 38/2/38 39/3/39
f 40/1/40 41/2/41 42/3/42
f 43/1/43 44/2/44 45/3/45
f 43/1/43 46/2/46 44/3/44
f 47/1/47 5/2/5 48/3/48
f 49/1/49 50/2/50 51/3/51
f 49/1/49 52/2/52 50/3/50
f 47/1/47 2/2/2 53/3/53
f 54/1/54 55/2/55 56/3/56
f 54/1/54 57/2/57 55/3/55
f 43/1/43 45/2/45 58/3/58
f 59/1/59 60/2/60 61/3/61
f 59/1/59 62/2/62 60/3/60
f 54/1/54 56/2/56 63/3/63
f 64/1/64 65/2/65 66/3/66
f 64/1/64 67/2/67 65/3/65
f 59/1/59 61/2/61 68/3/68
f 69/1/69 70/2/70 71/3/71
f 69/1/69 72/2/72 70/3/70
f 49/1/49 51/2/51 73/3/73
f 74/1/74 75/2/75 76/3/76
f 74/1/74 77/2/77 75/3/75
f 78/1/78 79/2/79 80/3/80
f 81/1/81 82/2/82 83/3/83
f 81/1/81 84/2/84 82/3/82
f 85/1/85 86/2/86 87/3/87
f 88/1/88 89/2/89 90/3/90
f 88/1/88 91/2/91 89/3/89
f 92/1/92 93/2/93 94/3/94
f 95/1/95 96/2/96 97/3/97
f 95/1/95 98/2/98 96/3/96
f 99/1/99 100/2/100 101/3/101
f 102/1/102 103/2/103 104/3/104
f 102/1/102 105/2/105 103/3/103
f 69/1/69 71/2/71 106/3/106
f 107/1/107 108/2/108 109/3/109
f 107/1/107 110/2/110 108/3/108
f 74/1/74 76/2/76 111/3/111
f 112/1/112 113/2/113 114/3/114
f 112/1/112 115/2/115 113/3/113
f 81/1/81 83/2/83 116/3/116
f 117/1/117 118/2/118 119/3/119
f 117/1/117 120/2/120 118/3/118
f 88/1/88 90/2/90 121/3/121
f 122/1/122 123/2/123 124/3/124
f 122/1/122 125/2/125 123/3/123
f 95/1/95 97/2/97 126/3/126
f 127/1/127 128/2/128 129/3/129
f 127/1/127 130/2/130 128/3/128
f 131/1/131 132/2/132 133/3/133
f 134/1/134 135/2/135 136/3/136
f 134/1/134 137/2/137 135/3/135
f 138/1/138 139/2/139 140/3/140
f 141/1/141 142/2/142 143/3/143
f 141/1/141 144/2/144 142/3/142
f 145/1/145 146/2/146 147/3/147
f 148/1/148 149/2/149 150/3/150
f 148/1/148 151/2/151 149/3/149
f 152/1/152 153/2/153 154/3/154
f 155/1/155 156/2/156 157/3/157
f 155/1/155 158/2/158 156/3/156
f 159/1/159 160/2/160 161/3/161
f 3/1/3 46/2/46 43/3/43
f 3/1/3 2/2/2 46/3/46
f 2/1/2 47/2/47 46/3/46
f 6/1/6 52/2/52 49/3/49
f 6/1/6 5/2/5 52/3/52
f 5/1/5 47/2/47 52/3/52
f 7/1/7 57/2/57 54/3/54
f 7/1/7 3/2/3 57/3/57
f 3/1/3 43/2/43 57/3/57
f 8/1/8 62/2/62 59/3/59
f 8/1/8 7/2/7 62/3/62
f 7/1/7 54/2/54 62/3/62
f 9/1/9 67/2/67 64/3/64
f 9/1/9 8/2/8 67/3/67
f 8/1/8 59/2/59 67/3/67
f 10/1/10 72/2/72 69/3/69
f 10/1/10 6/2/6 72/3/72
f 6/1/6 49/2/49 72/3/72
f 13/1/13 77/2/77 74/3/74
f 13/1/13 12/2/12 77/3/77
f 12/1/12 78/2/78 77/3/77
f 16/1/16 84/2/84 81/3/81
f 16/1/16 15/2/15 84/3/84
f 15/1/15 85/2/85 84/3/84
f 19/1/19 91/2/91 88/3/88
f 19/1/19 18/2/18 91/3/91
f 18/1/18 92/2/92 91/3/91
f 22/1/22 98/2/98 95/3/95
f 22/1/22 21/2/21 98/3/98
f 21/1/21 99/2/99 98/3/98
f 23/1/23 105/2/105 102/3/102
f 23/1/23 10/2/10 105/3/105
f 10/1/10 69/2/69 105/3/105
f 24/1/24 110/2/110 107/3/107
f 24/1/24 13/2/13 110/3/110
f 13/1/13 74/2/74 110/3/110
f 25/1/25 115/2/115 112/3/112
f 25/1/25 16/2/16 115/3/115
f 16/1/16 81/2/81 115/3/115
f 26/1/26 120/2/120 117/3/117
f 26/1/26 19/2/19 120/3/120
f 19/1/19 88/2/88 120/3/120
f 27/1/27 125/2/125 122/3/122
f 27/1/27 22/2/22 125/3/125
f 22/1/22 95/2/95 125/3/125
f 30/1/30 130/2/130 127/3/127
f 30/1/30 29/2/29 130/3/130
f 29/1/29 131/2/131 130/3/130
f 33/1/33 137/2/137 134/3/134
f 33/1/33 32/2/32 137/3/137
f 32/1/32 138/2/138 137/3/137
f 36/1/36 144/2/144 141/3/141
f 36/1/36 35/2/35 144/3/144
f 35/1/35 145/2/145 144/3/144
f 39/1/39 151/2/151 148/3/148
f 39/1/39 38/2/38 151/3/151
f 38/1/38 152/2/152 151/3/151
f 42/1/42 158/2/158 155/3/155
f 42/1/42 41/2/41 158/3/158
f 41/1/41 159/2/159 158/3/158
f 45/1/45 12/2/12 11/3/11
f 45/1/45 44/2/44 12/3/12
f 44/1/44 78/2/78 12/3/12
f 44/1/44 48/2/48 78/3/78
f 44/1/44 46/2/46 48/3/48
f 46/1/46 47/2/47 48/3/48
f 48/1/48 79/2/79 78/3/78
f 48/1/48 5/2/5 79/3/79
f 5/1/5 4/2/4 79/3/79
f 51/1/51 66/2/66 20/3/20
f 51/1/51 50/2/50 66/3/66
f 50/1/50 64/2/64 66/3/66
f 50/1/50 53/2/53 64/3/64
f 50/1/50 52/2/52 53/3/53
f 52/1/52 47/2/47 53/3/53
f 53/1/53 9/2/9 64/3/64
f 53/1/53 2/2/2 9/3/9
f 2/1/2 1/2/1 9/3/9
f 56/1/56 15/2/15 14/3/14
f 56/1/56 55/2/55 15/3/15
f 55/1/55 85/2/85 15/3/15
f 55/1/55 58/2/58 85/3/85
f 55/1/55 57/2/57 58/3/58
f 57/1/57 43/2/43 58/3/58
f 58/1/58 86/2/86 85/3/85
f 58/1/58 45/2/45 86/3/86
f 45/1/45 11/2/11 86/3/86
f 61/1/61 18/2/18 17/3/17
f 61/1/61 60/2/60 18/3/18
f 60/1/60 92/2/92 18/3/18
f 60/1/60 63/2/63 92/3/92
f 60/1/60 62/2/62 63/3/63
f 62/1/62 54/2/54 63/3/63
f 63/1/63 93/2/93 92/3/92
f 63/1/63 56/2/56 93/3/93
f 56/1/56 14/2/14 93/3/93
f 66/1/66 21/2/21 20/3/20
f 66/1/66 65/2/65 21/3/21
f 65/1/65 99/2/99 21/3/21
f 65/1/65 68/2/68 99/3/99
f 65/1/65 67/2/67 68/3/68
f 67/1/67 59/2/59 68/3/68
f 68/1/68 100/2/100 99/3/99
f 68/1/68 61/2/61 100/3/100
f 61/1/61 17/2/17 100/3/100
f 71/1/71 124/2/124 40/3/40
f 71/1/71 70/2/70 124/3/124
f 70/1/70 122/2/122 124/3/124
f 70/1/70 73/2/73 122/3/122
f 70/1/70 72/2/72 73/3/73
f 72/1/72 49/2/49 73/3/73
f 73/1/73 27/2/27 122/3/122
f 73/1/73 51/2/51 27/3/27
f 51/1/51 20/2/20 27/3/27
f 76/1/76 104/2/104 28/3/28
f 76/1/76 75/2/75 104/3/104
f 75/1/75 102/2/102 104/3/104
f 75/1/75 80/2/80 102/3/102
f 75/1/75 77/2/77 80/3/80
f 77/1/77 78/2/78 80/3/80
f 80/1/80 23/2/23 102/3/102
f 80/1/80 79/2/79 23/3/23
f 79/1/79 4/2/4 23/3/23
f 83/1/83 109/2/109 31/3/31
f 83/1/83 82/2/82 109/3/109
f 82/1/82 107/2/107 109/3/109
f 82/1/82 87/2/87 107/3/107
f 82/1/82 84/2/84 87/3/87
f 84/1/84 85/2/85 87/3/87
f 87/1/87 24/2/24 107/3/107
f 87/1/87 86/2/86 24/3/24
f 86/1/86 11/2/11 24/3/24
f 90/1/90 114/2/114 34/3/34
f 90/1/90 89/2/89 114/3/114
f 89/1/89 112/2/112 114/3/114
f 89/1/89 94/2/94 112/3/112
f 89/1/89 91/2/91 94/3/94
f 91/1/91 92/2/92 94/3/94
f 94/1/94 25/2/25 112/3/112
f 94/1/94 93/2/93 25/3/25
f 93/1/93 14/2/14 25/3/25
f 97/1/97 119/2/119 37/3/37
f 97/1/97 96/2/96 119/3/119
f 96/1/96 117/2/117 119/3/119
f 96/1/96 101/2/101 117/3/117
f 96/1/96 98/2/98 101/3/101
f 98/1/98 99/2/99 101/3/101
f 101/1/101 26/2/26 117/3/117
f 101/1/101 100/2/100 26/3/26
f 100/1/100 17/2/17 26/3/26
f 104/1/104 29/2/29 28/3/28
f 104/1/104 103/2/103 29/3/29
f 103/1/103 131/2/131 29/3/29
f 103/1/103 106/2/106 131/3/131
f 103/1/103 105/2/105 106/3/106
f 105/1/105 69/2/69 106/3/106
f 106/1/106 132/2/132 131/3/131
f 106/1/106 71/2/71 132/3/132
f 71/1/71 40/2/40 132/3/132
f 109/1/109 32/2/32 31/3/31
f 109/1/109 108/2/108 32/3/32
f 108/1/108 138/2/138 32/3/32
f 108/1/108 111/2/111 138/3/138
f 108/1/108 110/2/110 111/3/111
f 110/1/110 74/2/74 111/3/111
f 111/1/111 139/2/139 138/3/138
f 111/1/111 76/2/76 139/3/139
f 76/1/76 28/2/28 139/3/139
f 114/1/114 35/2/35 34/3/34
f 114/1/114 113/2/113 35/3/35
f 113/1/113 145/2/145 35/3/35
f 113/1/113 116/2/116 145/3/145
f 113/1/113 115/2/115 116/3/116
f 115/1/115 81/2/81 116/3/116
f 116/1/116 146/2/146 145/3/145
f 116/1/116 83/2/83 146/3/146
f 83/1/83 31/2/31 146/3/146
f 119/1/119 38/2/38 37/3/37
f 119/1/119 118/2/118 38/3/38
f 118/1/118 152/2/152 38/3/38
f 118/1/118 121/2/121 152/3/152
f 118/1/118 120/2/120 121/3/121
f 120/1/120 88/2/88 121/3/121
f 121/1/121 153/2/153 152/3/152
f 121/1/121 90/2/90 153/3/153
f 90/1/90 34/2/34 153/3/153
f 124/1/124 41/2/41 40/3/40
f 124/1/124 123/2/123 41/3/41
f 123/1/123 159/2/159 41/3/41
f 123/1/123 126/2/126 159/3/159
f 123/1/123 125/2/125 126/3/126
f 125/1/125 95/2/95 126/3/126
f 126/1/126 160/2/160 159/3/159
f 126/1/126 97/2/97 160/3/160
f 97/1/97 37/2/37 160/3/160
f 129/1/129 157/2/157 162/3/162
f 129/1/129 128/2/128 157/3/157
f 128/1/128 155/2/155 157/3/157
f 128/1/128 133/2/133 155/3/155
f 128/1/128 130/2/130 133/3/133
f 130/1/130 131/2/131 133/3/133
f 133/1/133 42/2/42 155/3/155
f 133/1/133 132/2/132 42/3/42
f 132/1/132 40/2/40 42/3/42
f 136/1/136 129/2/129 162/3/162
f 136/1/136 135/2/135 129/3/129
f 135/1/135 127/2/127 129/3/129
f 135/1/135 140/2/140 127/3/127
f 135/1/135 137/2/137 140/3/140
f 137/1/137 138/2/138 140/3/140
f 140/1/140 30/2/30 127/3/127
f 140/1/140 139/2/139 30/3/30
f 139/1/139 28/2/28 30/3/30
f 143/1/143 136/2/136 162/3/162
f 143/1/143 142/2/142 136/3/136
f 142/1/142 134/2/134 136/3/136
f 142/1/142 147/2/147 134/3/134
f 142/1/142 144/2/144 147/3/147
f 144/1/144 145/2/145 147/3/147
f 147/1/147 33/2/33 134/3/134
f 147/1/147 146/2/146 33/3/33
f 146/1/146 31/2/31 33/3/33
f 150/1/150 143/2/143 162/3/162
f 150/1/150 149/2/149 143/3/143
f 149/1/149 141/2/141 143/3/143
f 149/1/149 154/2/154 141/3/141
f 149/1/149 151/2/151 154/3/154
f 151/1/151 152/2/152 154/3/154
f 154/1/154 36/2/36 141/3/141
f 154/1/154 153/2/153 36/3/36
f 153/1/153 34/2/34 36/3/36
f 157/1/157 150/2/150 162/3/162
f 157/1/157 156/2/156 150/3/150
f 156/1/156 148/2/148 150/3/150
f 156/1/156 161/2/161 148/3/148
f 156/1/156 158/2/158 161/3/161
f 158/1/158 159/2/159 161/3/161
f 161/1/161 39/2/39 148/3/148
f 161/1/161 160/2/160 39/3/39
f 160/1/160 37/2/37 39/3/39
